<svg width="456" height="73" viewBox="0 0 456 73" fill="none" xmlns="http://www.w3.org/2000/svg">
<path d="M115.873 16.2002C118.491 16.2002 120.129 17.5582 120.129 19.7562C120.129 21.9402 118.491 23.2982 115.873 23.2982H113.899V26.0002H111.631V16.2002H115.873ZM115.747 21.4502C117.133 21.4502 117.833 20.8202 117.833 19.7562C117.833 18.6782 117.133 18.0482 115.747 18.0482H113.899V21.4502H115.747Z" fill="white"/>
<path d="M130.988 26.0002H128.552L126.662 23.2702H124.576V26.0002H122.308V16.2002H126.55C129.168 16.2002 130.806 17.5582 130.806 19.7562C130.806 21.2262 130.064 22.3042 128.79 22.8502L130.988 26.0002ZM128.51 19.7562C128.51 18.6782 127.81 18.0482 126.424 18.0482H124.576V21.4642H126.424C127.81 21.4642 128.51 20.8202 128.51 19.7562Z" fill="white"/>
<path d="M137.909 26.1682C134.815 26.1682 132.547 24.0122 132.547 21.1002C132.547 18.1882 134.815 16.0322 137.909 16.0322C140.989 16.0322 143.271 18.1742 143.271 21.1002C143.271 24.0262 140.989 26.1682 137.909 26.1682ZM137.909 24.2362C139.659 24.2362 140.975 22.9622 140.975 21.1002C140.975 19.2382 139.659 17.9642 137.909 17.9642C136.159 17.9642 134.843 19.2382 134.843 21.1002C134.843 22.9622 136.159 24.2362 137.909 24.2362Z" fill="white"/>
<path d="M152.941 18.0202H147.803V20.6102H152.339V22.4302H147.803V26.0002H145.535V16.2002H152.941V18.0202Z" fill="white"/>
<path d="M157.291 24.1802H162.625V26.0002H155.037V16.2002H162.443V18.0202H157.291V20.1482H161.841V21.9122H157.291V24.1802Z" fill="white"/>
<path d="M168.209 26.1682C166.655 26.1682 165.087 25.7062 164.219 25.0342L164.989 23.3262C165.815 23.9282 167.047 24.3482 168.223 24.3482C169.567 24.3482 170.113 23.9002 170.113 23.2982C170.113 21.4642 164.415 22.7242 164.415 19.0842C164.415 17.4182 165.759 16.0322 168.545 16.0322C169.777 16.0322 171.037 16.3262 171.947 16.9002L171.247 18.6222C170.337 18.1042 169.399 17.8522 168.531 17.8522C167.187 17.8522 166.669 18.3562 166.669 18.9722C166.669 20.7782 172.367 19.5322 172.367 23.1302C172.367 24.7682 171.009 26.1682 168.209 26.1682Z" fill="white"/>
<path d="M177.697 26.1682C176.143 26.1682 174.575 25.7062 173.707 25.0342L174.477 23.3262C175.303 23.9282 176.535 24.3482 177.711 24.3482C179.055 24.3482 179.601 23.9002 179.601 23.2982C179.601 21.4642 173.903 22.7242 173.903 19.0842C173.903 17.4182 175.247 16.0322 178.033 16.0322C179.265 16.0322 180.525 16.3262 181.435 16.9002L180.735 18.6222C179.825 18.1042 178.887 17.8522 178.019 17.8522C176.675 17.8522 176.157 18.3562 176.157 18.9722C176.157 20.7782 181.855 19.5322 181.855 23.1302C181.855 24.7682 180.497 26.1682 177.697 26.1682Z" fill="white"/>
<path d="M183.965 26.0002V16.2002H186.233V26.0002H183.965Z" fill="white"/>
<path d="M193.865 26.1682C190.771 26.1682 188.503 24.0122 188.503 21.1002C188.503 18.1882 190.771 16.0322 193.865 16.0322C196.945 16.0322 199.227 18.1742 199.227 21.1002C199.227 24.0262 196.945 26.1682 193.865 26.1682ZM193.865 24.2362C195.615 24.2362 196.931 22.9622 196.931 21.1002C196.931 19.2382 195.615 17.9642 193.865 17.9642C192.115 17.9642 190.799 19.2382 190.799 21.1002C190.799 22.9622 192.115 24.2362 193.865 24.2362Z" fill="white"/>
<path d="M208.239 16.2002H210.479V26.0002H208.617L203.731 20.0502V26.0002H201.491V16.2002H203.367L208.239 22.1502V16.2002Z" fill="white"/>
<path d="M220.68 26.0002L219.812 23.9002H215.262L214.394 26.0002H212.07L216.438 16.2002H218.678L223.06 26.0002H220.68ZM215.99 22.1782H219.098L217.544 18.4262L215.99 22.1782Z" fill="white"/>
<path d="M224.636 26.0002V16.2002H226.904V24.1522H231.818V26.0002H224.636Z" fill="white"/>
<path d="M111.631 43.0002V33.2002H113.899V41.1522H118.813V43.0002H111.631Z" fill="white"/>
<path d="M122.894 41.1802H128.228V43.0002H120.64V33.2002H128.046V35.0202H122.894V37.1482H127.444V38.9122H122.894V41.1802Z" fill="white"/>
<path d="M137.187 40.8162V37.9462H139.259V41.9222C138.181 42.7342 136.697 43.1682 135.297 43.1682C132.217 43.1682 129.949 41.0542 129.949 38.1002C129.949 35.1462 132.217 33.0322 135.339 33.0322C137.061 33.0322 138.489 33.6202 139.441 34.7262L137.985 36.0702C137.271 35.3142 136.445 34.9642 135.451 34.9642C133.547 34.9642 132.245 36.2382 132.245 38.1002C132.245 39.9342 133.547 41.2362 135.423 41.2362C136.039 41.2362 136.613 41.1242 137.187 40.8162Z" fill="white"/>
<path d="M149.248 43.0002L148.38 40.9002H143.83L142.962 43.0002H140.638L145.006 33.2002H147.246L151.628 43.0002H149.248ZM144.558 39.1782H147.666L146.112 35.4262L144.558 39.1782Z" fill="white"/>
<path d="M153.205 43.0002V33.2002H155.473V41.1522H160.387V43.0002H153.205Z" fill="white"/>
<path d="M118.953 60.0002L118.085 57.9002H113.535L112.667 60.0002H110.343L114.711 50.2002H116.951L121.333 60.0002H118.953ZM114.263 56.1782H117.371L115.817 52.4262L114.263 56.1782Z" fill="white"/>
<path d="M122.91 60.0002V50.2002H125.178V58.1522H130.092V60.0002H122.91Z" fill="white"/>
<path d="M131.919 60.0002V50.2002H134.187V58.1522H139.101V60.0002H131.919Z" fill="white"/>
<path d="M140.928 60.0002V50.2002H143.196V60.0002H140.928Z" fill="white"/>
<path d="M153.404 60.0002L152.536 57.9002H147.986L147.118 60.0002H144.794L149.162 50.2002H151.402L155.784 60.0002H153.404ZM148.714 56.1782H151.822L150.268 52.4262L148.714 56.1782Z" fill="white"/>
<path d="M164.108 50.2002H166.348V60.0002H164.486L159.6 54.0502V60.0002H157.36V50.2002H159.236L164.108 56.1502V50.2002Z" fill="white"/>
<path d="M173.917 60.1682C170.879 60.1682 168.611 58.0542 168.611 55.1002C168.611 52.1462 170.879 50.0322 173.931 50.0322C175.625 50.0322 177.039 50.6482 177.963 51.7682L176.507 53.1122C175.849 52.3562 175.023 51.9642 174.043 51.9642C172.209 51.9642 170.907 53.2522 170.907 55.1002C170.907 56.9482 172.209 58.2362 174.043 58.2362C175.023 58.2362 175.849 57.8442 176.507 57.0742L177.963 58.4182C177.039 59.5522 175.625 60.1682 173.917 60.1682Z" fill="white"/>
<path d="M182.309 58.1802H187.643V60.0002H180.055V50.2002H187.461V52.0202H182.309V54.1482H186.859V55.9122H182.309V58.1802Z" fill="white"/>
<path d="M270.995 16.2002H279.437V26.0002H278.065V17.4182H272.381V26.0002H270.995V16.2002Z" fill="white"/>
<path d="M286.875 16.2002C289.423 16.2002 290.963 17.4882 290.963 19.6162C290.963 21.7442 289.423 23.0322 286.875 23.0322H284.453V26.0002H283.053V16.2002H286.875ZM286.833 21.8142C288.625 21.8142 289.563 21.0162 289.563 19.6162C289.563 18.2162 288.625 17.4182 286.833 17.4182H284.453V21.8142H286.833Z" fill="white"/>
<path d="M298.017 26.1122C295.007 26.1122 292.795 23.9702 292.795 21.1002C292.795 18.2302 295.007 16.0882 298.017 16.0882C300.999 16.0882 303.211 18.2162 303.211 21.1002C303.211 23.9842 300.999 26.1122 298.017 26.1122ZM298.017 24.8662C300.187 24.8662 301.811 23.2702 301.811 21.1002C301.811 18.9302 300.187 17.3342 298.017 17.3342C295.819 17.3342 294.195 18.9302 294.195 21.1002C294.195 23.2702 295.819 24.8662 298.017 24.8662Z" fill="white"/>
<path d="M316.842 21.0862C316.842 23.6762 314.952 25.2162 311.648 25.3282V26.3642H310.346V25.3282C307.042 25.2022 305.138 23.6622 305.138 21.0862C305.138 18.4962 307.042 16.9562 310.346 16.8302V15.8362H311.648V16.8302C314.938 16.9562 316.842 18.5102 316.842 21.0862ZM311.648 24.2362C314.14 24.0822 315.498 23.0042 315.498 21.0722C315.498 19.1682 314.098 18.0762 311.648 17.9362V24.2362ZM306.496 21.0862C306.496 23.0182 307.91 24.0822 310.346 24.2362V17.9362C307.854 18.0902 306.496 19.1542 306.496 21.0862Z" fill="white"/>
<path d="M320.955 24.7822H326.667V26.0002H319.555V16.2002H326.471V17.4182H320.955V20.4282H325.869V21.6182H320.955V24.7822Z" fill="white"/>
<path d="M333.767 26.1122C330.799 26.1122 328.587 23.9982 328.587 21.1002C328.587 18.2022 330.799 16.0882 333.781 16.0882C335.293 16.0882 336.609 16.6062 337.505 17.6142L336.595 18.4962C335.839 17.6982 334.915 17.3342 333.837 17.3342C331.625 17.3342 329.987 18.9302 329.987 21.1002C329.987 23.2702 331.625 24.8662 333.837 24.8662C334.915 24.8662 335.839 24.4882 336.595 23.6902L337.505 24.5722C336.609 25.5802 335.293 26.1122 333.767 26.1122Z" fill="white"/>
<path d="M344.17 26.1122C341.202 26.1122 338.99 23.9982 338.99 21.1002C338.99 18.2022 341.202 16.0882 344.184 16.0882C345.696 16.0882 347.012 16.6062 347.908 17.6142L346.998 18.4962C346.242 17.6982 345.318 17.3342 344.24 17.3342C342.028 17.3342 340.39 18.9302 340.39 21.1002C340.39 23.2702 342.028 24.8662 344.24 24.8662C345.318 24.8662 346.242 24.4882 346.998 23.6902L347.908 24.5722C347.012 25.5802 345.696 26.1122 344.17 26.1122Z" fill="white"/>
<path d="M350.397 26.0002V16.2002H351.783V23.7602L357.579 16.2002H358.867V26.0002H357.495V18.4542L351.685 26.0002H350.397Z" fill="white"/>
<path d="M366.893 26.1122C363.883 26.1122 361.671 23.9702 361.671 21.1002C361.671 18.2302 363.883 16.0882 366.893 16.0882C369.875 16.0882 372.087 18.2162 372.087 21.1002C372.087 23.9842 369.875 26.1122 366.893 26.1122ZM366.893 24.8662C369.063 24.8662 370.687 23.2702 370.687 21.1002C370.687 18.9302 369.063 17.3342 366.893 17.3342C364.695 17.3342 363.071 18.9302 363.071 21.1002C363.071 23.2702 364.695 24.8662 366.893 24.8662Z" fill="white"/>
<path d="M381.938 16.2002H383.338V26.0002H381.938V21.6322H376.31V26.0002H374.91V16.2002H376.31V20.4142H381.938V16.2002Z" fill="white"/>
<path d="M394.402 26.0002L393.324 23.5502H388.116L387.038 26.0002H385.596L390.034 16.2002H391.42L395.872 26.0002H394.402ZM388.606 22.4302H392.834L390.72 17.6282L388.606 22.4302Z" fill="white"/>
<path d="M399.27 16.2002H406.172V26.0002H404.8V17.4182H400.46L400.362 20.2882C400.236 24.1802 399.634 26.1122 397.702 26.1122C397.422 26.1122 397.156 26.0842 396.82 26.0002L396.918 24.7542C397.086 24.7962 397.212 24.8102 397.366 24.8102C398.584 24.8102 399.004 23.3682 399.116 20.3302L399.27 16.2002Z" fill="white"/>
<path d="M414.083 19.6162C416.407 19.6162 417.695 20.6662 417.695 22.7102C417.695 24.8802 416.281 26.0002 413.831 26.0002H409.785V16.2002H411.171V19.6162H414.083ZM413.775 24.8942C415.399 24.8942 416.295 24.1522 416.295 22.7382C416.295 21.3522 415.413 20.7222 413.775 20.7222H411.171V24.8942H413.775Z" fill="white"/>
<path d="M427.354 16.2002H428.753V26.0002H427.354V21.6322H421.725V26.0002H420.326V16.2002H421.725V20.4142H427.354V16.2002Z" fill="white"/>
<path d="M436.668 19.6162C438.992 19.6162 440.28 20.6662 440.28 22.7102C440.28 24.8802 438.866 26.0002 436.416 26.0002H432.37V16.2002H433.756V19.6162H436.668ZM441.834 26.0002V16.2002H443.22V26.0002H441.834ZM436.36 24.8942C437.984 24.8942 438.88 24.1522 438.88 22.7382C438.88 21.3522 437.998 20.7222 436.36 20.7222H433.756V24.8942H436.36Z" fill="white"/>
<path d="M451.048 15.5142C449.508 15.5142 448.654 14.8142 448.64 13.5962H449.634C449.648 14.3242 450.18 14.7442 451.048 14.7442C451.888 14.7442 452.434 14.3242 452.462 13.5962H453.442C453.428 14.8142 452.56 15.5142 451.048 15.5142ZM446.834 26.0002V16.2002H448.22V23.7602L454.016 16.2002H455.304V26.0002H453.932V18.4542L448.122 26.0002H446.834Z" fill="white"/>
<path d="M270.995 33.2002H279.437V43.0002H278.065V34.4182H272.381V43.0002H270.995V33.2002Z" fill="white"/>
<path d="M286.875 33.2002C289.423 33.2002 290.963 34.4882 290.963 36.6162C290.963 38.7442 289.423 40.0322 286.875 40.0322H284.453V43.0002H283.053V33.2002H286.875ZM286.833 38.8142C288.625 38.8142 289.563 38.0162 289.563 36.6162C289.563 35.2162 288.625 34.4182 286.833 34.4182H284.453V38.8142H286.833Z" fill="white"/>
<path d="M300.426 43.0002L299.348 40.5502H294.14L293.062 43.0002H291.62L296.058 33.2002H297.444L301.896 43.0002H300.426ZM294.63 39.4302H298.858L296.744 34.6282L294.63 39.4302Z" fill="white"/>
<path d="M310.251 37.9182C311.567 38.2402 312.267 39.0522 312.267 40.3262C312.267 42.0062 311.035 43.0002 308.627 43.0002H304.147V33.2002H308.361C310.489 33.2002 311.777 34.0822 311.777 35.7202C311.777 36.7982 311.203 37.5542 310.251 37.9182ZM305.533 34.3062V37.5122H308.263C309.607 37.5122 310.363 36.9662 310.363 35.9162C310.363 34.8662 309.607 34.3062 308.263 34.3062H305.533ZM308.599 41.8942C310.069 41.8942 310.853 41.3622 310.853 40.2142C310.853 39.0802 310.069 38.5762 308.599 38.5762H305.533V41.8942H308.599Z" fill="white"/>
<path d="M319.576 43.1122C316.566 43.1122 314.354 40.9702 314.354 38.1002C314.354 35.2302 316.566 33.0882 319.576 33.0882C322.558 33.0882 324.77 35.2162 324.77 38.1002C324.77 40.9842 322.558 43.1122 319.576 43.1122ZM319.576 41.8662C321.746 41.8662 323.37 40.2702 323.37 38.1002C323.37 35.9302 321.746 34.3342 319.576 34.3342C317.378 34.3342 315.754 35.9302 315.754 38.1002C315.754 40.2702 317.378 41.8662 319.576 41.8662Z" fill="white"/>
<path d="M333.698 37.9182C335.014 38.2402 335.714 39.0522 335.714 40.3262C335.714 42.0062 334.482 43.0002 332.074 43.0002H327.594V33.2002H331.808C333.936 33.2002 335.224 34.0822 335.224 35.7202C335.224 36.7982 334.65 37.5542 333.698 37.9182ZM328.98 34.3062V37.5122H331.71C333.054 37.5122 333.81 36.9662 333.81 35.9162C333.81 34.8662 333.054 34.3062 331.71 34.3062H328.98ZM332.046 41.8942C333.516 41.8942 334.3 41.3622 334.3 40.2142C334.3 39.0802 333.516 38.5762 332.046 38.5762H328.98V41.8942H332.046Z" fill="white"/>
<path d="M343.023 43.1122C340.013 43.1122 337.801 40.9702 337.801 38.1002C337.801 35.2302 340.013 33.0882 343.023 33.0882C346.005 33.0882 348.217 35.2162 348.217 38.1002C348.217 40.9842 346.005 43.1122 343.023 43.1122ZM343.023 41.8662C345.193 41.8662 346.817 40.2702 346.817 38.1002C346.817 35.9302 345.193 34.3342 343.023 34.3342C340.825 34.3342 339.201 35.9302 339.201 38.1002C339.201 40.2702 340.825 41.8662 343.023 41.8662Z" fill="white"/>
<path d="M355.254 32.5142C353.714 32.5142 352.86 31.8142 352.846 30.5962H353.84C353.854 31.3242 354.386 31.7442 355.254 31.7442C356.094 31.7442 356.64 31.3242 356.668 30.5962H357.648C357.634 31.8142 356.766 32.5142 355.254 32.5142ZM351.04 43.0002V33.2002H352.426V40.7602L358.222 33.2002H359.51V43.0002H358.138V35.4542L352.328 43.0002H351.04Z" fill="white"/>
<path d="M278.443 60.0002L277.365 57.5502H272.157L271.079 60.0002H269.637L274.075 50.2002H275.461L279.913 60.0002H278.443ZM272.647 56.4302H276.875L274.761 51.6282L272.647 56.4302Z" fill="white"/>
<path d="M283.311 50.2002H290.213V60.0002H288.841V51.4182H284.501L284.403 54.2882C284.277 58.1802 283.675 60.1122 281.743 60.1122C281.463 60.1122 281.197 60.0842 280.861 60.0002L280.959 58.7542C281.127 58.7962 281.253 58.8102 281.407 58.8102C282.625 58.8102 283.045 57.3682 283.157 54.3302L283.311 50.2002Z" fill="white"/>
<path d="M298.124 53.6162C300.448 53.6162 301.736 54.6662 301.736 56.7102C301.736 58.8802 300.322 60.0002 297.872 60.0002H293.826V50.2002H295.212V53.6162H298.124ZM297.816 58.8942C299.44 58.8942 300.336 58.1522 300.336 56.7382C300.336 55.3522 299.454 54.7222 297.816 54.7222H295.212V58.8942H297.816Z" fill="white"/>
<path d="M307.026 50.2002H310.96V60.0002H309.588V57.1442H306.886C306.76 57.1442 306.634 57.1442 306.508 57.1302L304.548 60.0002H303.064L305.234 56.8922C303.848 56.4302 303.064 55.3102 303.064 53.7282C303.064 51.4882 304.618 50.2002 307.026 50.2002ZM304.478 53.7142C304.478 55.1562 305.332 55.9682 306.998 55.9682H309.588V51.4182H307.082C305.416 51.4182 304.478 52.2022 304.478 53.7142Z" fill="white"/>
<path d="M321.606 50.2002H323.006V60.0002H321.606V55.6322H315.978V60.0002H314.578V50.2002H315.978V54.4142H321.606V50.2002Z" fill="white"/>
<path d="M331.005 60.1122C328.037 60.1122 325.825 57.9982 325.825 55.1002C325.825 52.2022 328.037 50.0882 331.019 50.0882C332.531 50.0882 333.847 50.6062 334.743 51.6142L333.833 52.4962C333.077 51.6982 332.153 51.3342 331.075 51.3342C328.863 51.3342 327.225 52.9302 327.225 55.1002C327.225 57.2702 328.863 58.8662 331.075 58.8662C332.153 58.8662 333.077 58.4882 333.833 57.6902L334.743 58.5722C333.847 59.5802 332.531 60.1122 331.005 60.1122Z" fill="white"/>
<g clip-path="url(#clip0_10_1430)">
<path d="M76.9189 0L72.4224 6.95336H77.4237V66.0466H34.2201L29.7236 73H84.3771V0H76.9189Z" fill="#4F77B1"/>
<path d="M20.592 6.95336H64.1613L68.6578 0H13.6387V17.0486H20.592V6.95336Z" fill="white"/>
<path d="M20.592 55.9512H13.6387V72.9998H21.4625L25.959 66.0464H20.592V55.9512Z" fill="white"/>
<path d="M10.4815 24.1924C13.1084 24.1924 15.2819 25.0319 17.0023 26.7059C18.7277 28.3799 19.5879 30.5122 19.5879 33.0875C19.5879 35.6629 18.7226 37.8004 16.9868 39.4898C15.251 41.1792 13.0826 42.0239 10.4815 42.0239H6.78854V48.8124H0V24.1975H10.4815V24.1924ZM9.6729 36.0801C10.5382 36.0801 11.249 35.8071 11.8001 35.256C12.3512 34.7048 12.6242 33.9837 12.6242 33.0927C12.6242 32.5313 12.5006 32.0214 12.2534 31.5629C12.0061 31.1045 11.661 30.7491 11.2181 30.4916C10.77 30.2341 10.2549 30.1053 9.6729 30.1053H6.78854V36.0852H9.6729V36.0801Z" fill="white"/>
<path d="M28.5498 42.5853H37.3059V48.8073H21.6943V24.1924H28.5498V42.5853Z" fill="white"/>
<path d="M56.6053 48.8073L55.2352 44.8001H46.5152L45.1451 48.8073H37.9033L47.5762 24.1924H54.1845L64.0686 48.8073H56.6156H56.6053ZM53.5819 39.4898L50.8726 31.8565L48.1634 39.4898H53.5767H53.5819Z" fill="white"/>
</g>
<rect opacity="0.6" x="250.469" y="14" width="1" height="44" fill="white"/>
<defs>
<clipPath id="clip0_10_1430">
<rect width="84.3778" height="73" fill="white"/>
</clipPath>
</defs>
</svg>
