<svg width="635" height="223" viewBox="0 0 635 223" fill="none" xmlns="http://www.w3.org/2000/svg">
<path d="M206.43 177.665H174.243V218.712H114.511V177.665H0V138.15L97.1797 4.28846H160.625L72.4206 129.573H116.368V93.1209H174.243V129.573H206.43V177.665Z" fill="#EFEFEF"/>
<path d="M314.502 223C295.932 223 279.426 218.609 264.983 209.828C250.541 201.047 239.193 188.284 230.94 171.538C222.893 154.589 218.87 134.576 218.87 111.5C218.87 88.424 222.893 68.5133 230.94 51.7679C239.193 34.8182 250.541 21.9528 264.983 13.1717C279.426 4.39057 295.932 0 314.502 0C332.865 0 349.268 4.39057 363.711 13.1717C378.154 21.9528 389.398 34.8182 397.445 51.7679C405.698 68.5133 409.825 88.424 409.825 111.5C409.825 134.576 405.698 154.589 397.445 171.538C389.398 188.284 378.154 201.047 363.711 209.828C349.268 218.609 332.865 223 314.502 223ZM314.502 173.376C324.818 173.376 332.968 168.475 338.952 158.673C345.141 148.667 348.236 132.942 348.236 111.5C348.236 90.0577 345.141 74.4354 338.952 64.6332C332.968 54.6268 324.818 49.6236 314.502 49.6236C303.979 49.6236 295.623 54.6268 289.433 64.6332C283.45 74.4354 280.458 90.0577 280.458 111.5C280.458 132.942 283.45 148.667 289.433 158.673C295.623 168.475 303.979 173.376 314.502 173.376Z" fill="#EFEFEF"/>
<path d="M635 177.665H602.813V218.712H543.082V177.665H428.57V138.15L525.75 4.28846H589.196L500.991 129.573H544.939V93.1209H602.813V129.573H635V177.665Z" fill="#EFEFEF"/>
</svg>
